<svg viewBox="0 0 200 200.00001" xml:space="preserve" xmlns:xlink="http://www.w3.org/1999/xlink" xmlns="http://www.w3.org/2000/svg"><defs><linearGradient id="b"><stop offset=".3" stop-color="#f5d711"/><stop offset="1" stop-color="#ff7800"/></linearGradient><linearGradient id="a"><stop offset=".3" stop-color="#62a0ea"/><stop offset="1" stop-color="#815bff"/></linearGradient><linearGradient id="c"><stop offset="0" stop-color="#36d96c"/><stop offset=".7" stop-color="#25a25f"/></linearGradient><linearGradient xlink:href="#a" id="f" x1="224.20418" y1="628.98004" x2="295.1261" y2="724.3924" gradientUnits="userSpaceOnUse" gradientTransform="translate(-195.2447 -628.98005)"/><linearGradient xlink:href="#b" id="d" x1="195.33673" y1="778.9801" x2="274.20328" y2="688.15594" gradientUnits="userSpaceOnUse" gradientTransform="translate(-195.33673 -629.04362)"/><linearGradient xlink:href="#c" id="e" x1="253.29906" y1="724.37781" x2="353.07178" y2="778.9801" gradientUnits="userSpaceOnUse" gradientTransform="translate(-195.21694 -628.99749)"/></defs><path d="M100 99.93647a50 50 0 0 1-49.99999 50A50 50 0 0 1 0 99.93647a50 50 0 0 1 50.00001-50 50 50 0 0 1 49.99999 50z" fill="url(#d)" transform="translate(21.072585 25.0087)"/><path d="M157.85483 99.9826a50 50 0 0 1-50 50 50 50 0 0 1-49.999995-50 50 50 0 0 1 49.999995-50 50 50 0 0 1 50 50z" fill="url(#e)" transform="translate(21.072585 25.0087)"/><path d="M78.959555 0A50 50 0 0 0 28.95949 50.00006a50 50 0 0 0 .23773 4.6028 50 50 0 0 1 20.89485-4.6028 50 50 0 0 1 28.887645 9.19115 50 50 0 0 0-20.91501 36.20606 50 50 0 0 0 20.89485 4.60282 50 50 0 0 0 50.000035-50.00003A50 50 0 0 0 78.959555 0Z" fill="url(#f)" transform="translate(21.072585 25.0087)"/><path d="M79.136661 120.40551a50 50 0 0 0 20.89485 4.60231 50 50 0 0 0 20.91551-4.6111 50 50 0 0 0-20.89536-36.19727 50 50 0 0 0-20.915 36.20606z" fill="#484573"/></svg>